<svg width="44" height="44" viewBox="0 0 44 44" fill="none" xmlns="http://www.w3.org/2000/svg">
<path d="M41.8 8H2.2C0.98669 8 0 8.93399 0 10.0825V22C0 22.3836 0.328366 22.6942 0.733333 22.6942C1.1383 22.6942 1.46667 22.3836 1.46667 22V10.0825C1.46667 9.69948 1.79569 9.38834 2.2 9.38834H41.8C42.2046 9.38834 42.5333 9.69948 42.5333 10.0825V33.9175C42.5333 34.3005 42.2046 34.6117 41.8 34.6117H2.2C1.79569 34.6117 1.46667 34.3005 1.46667 33.9175V24.9758C1.46667 24.5922 1.1383 24.2816 0.733333 24.2816C0.328366 24.2816 0 24.5922 0 24.9758V33.9175C0 35.066 0.98669 36 2.2 36H41.8C43.0133 36 44 35.066 44 33.9175V10.0825C44 8.93399 43.0133 8 41.8 8Z" fill="#21A038"/>
<path d="M7.10911 27.712C6.30016 27.712 5.64245 27.0891 5.64245 26.3237C5.64245 25.9401 5.31408 25.6295 4.90911 25.6295C4.50415 25.6295 4.17578 25.9401 4.17578 26.3237C4.17578 27.6138 5.11436 28.6913 6.37578 29.0018V29.815C6.37578 30.1987 6.70415 30.5092 7.10911 30.5092C7.51408 30.5092 7.84245 30.1987 7.84245 29.815V29.0018C9.10387 28.6913 10.0424 27.6141 10.0424 26.3237C10.0424 24.7922 8.72639 23.547 7.10911 23.547C6.30016 23.547 5.64245 22.9241 5.64245 22.1587C5.64245 21.3932 6.30016 20.7703 7.10911 20.7703C7.91807 20.7703 8.57578 21.3932 8.57578 22.1587C8.57578 22.5423 8.90415 22.8529 9.30911 22.8529C9.71408 22.8529 10.0424 22.5423 10.0424 22.1587C10.0424 20.8686 9.10387 19.7911 7.84245 19.4805V18.6674C7.84245 18.2837 7.51408 17.9732 7.10911 17.9732C6.70415 17.9732 6.37578 18.2837 6.37578 18.6674V19.4805C5.11436 19.7911 4.17578 20.8682 4.17578 22.1587C4.17578 23.6902 5.49184 24.9354 7.10911 24.9354C7.91807 24.9354 8.57578 25.5583 8.57578 26.3237C8.57578 27.0891 7.91807 27.712 7.10911 27.712Z" fill="#21A038"/>
<path d="M25.812 30.7829C25.812 31.1665 26.1401 31.477 26.5453 31.477H39.0925C39.4978 31.477 39.8258 31.1665 39.8258 30.7829C39.8258 30.3992 39.4978 30.0887 39.0925 30.0887H26.5453C26.1401 30.0887 25.812 30.3992 25.812 30.7829Z" fill="#21A038"/>
<path d="M26.679 28.0389C26.8093 28.4015 27.2261 28.5927 27.61 28.4706C28.0134 28.3398 28.9795 28.007 30.03 27.5059C32.1969 28.3147 33.9072 28.5803 35.2184 28.5803C37.6403 28.5803 38.6994 27.6738 38.7662 27.6143C39.0569 27.3552 39.069 26.9288 38.8019 26.649C38.5334 26.3682 38.0734 26.3465 37.7713 26.5948C37.7526 26.609 36.0581 27.9363 31.6712 26.5907C33.0003 25.71 34.0437 24.5671 33.7052 23.2386C33.4862 22.3771 32.6662 21.8747 31.5046 21.9181C29.9747 21.9636 27.6588 22.9987 27.3632 24.5829C27.2529 25.1766 27.394 25.9557 28.4059 26.6849C27.9692 26.8665 27.5374 27.0258 27.1347 27.1569C26.7516 27.2818 26.5473 27.6763 26.6793 28.0388L26.679 28.0389ZM28.8073 24.8243C28.9334 24.1484 30.3942 23.3396 31.5502 23.3058C31.8078 23.2983 32.2157 23.3237 32.2799 23.5639C32.4675 24.3008 31.3561 25.2005 29.948 25.9569C29.161 25.5847 28.7419 25.1754 28.8071 24.8243L28.8073 24.8243Z" fill="#21A038"/>
<path d="M39.8244 17.6701V13.2162C39.8244 12.8326 39.4964 12.522 39.0911 12.522H27.372C26.9667 12.522 26.6387 12.8326 26.6387 13.2162V17.6701C26.6387 18.0537 26.9667 18.3642 27.372 18.3642H33.2315C33.6368 18.3642 33.9648 18.0537 33.9648 17.6701C33.9648 17.2864 33.6368 16.9759 33.2315 16.9759H28.1053V13.9104H38.3578V16.9759H36.0998C35.6946 16.9759 35.3665 17.2864 35.3665 17.6701C35.3665 18.0537 35.6946 18.3642 36.0998 18.3642H39.0911C39.4964 18.3642 39.8244 18.0537 39.8244 17.6701Z" fill="#21A038"/>
<path d="M14.0634 13.9113H21.2518C21.6567 13.9113 21.9851 13.6008 21.9851 13.2171C21.9851 12.8335 21.6567 12.5229 21.2518 12.5229H14.0634C13.6584 12.5229 13.3301 12.8335 13.3301 13.2171C13.3301 13.6008 13.6584 13.9113 14.0634 13.9113Z" fill="#21A038"/>
<path d="M14.0634 18.3642H21.2518C21.6567 18.3642 21.9851 18.0536 21.9851 17.67C21.9851 17.2863 21.6567 16.9758 21.2518 16.9758H14.0634C13.6584 16.9758 13.3301 17.2863 13.3301 17.67C13.3301 18.0536 13.6584 18.3642 14.0634 18.3642Z" fill="#21A038"/>
<path d="M14.0634 31.477H21.2518C21.6567 31.477 21.9851 31.1665 21.9851 30.7829C21.9851 30.3992 21.6567 30.0887 21.2518 30.0887H14.0634C13.6584 30.0887 13.3301 30.3992 13.3301 30.7829C13.3301 31.1665 13.6584 31.477 14.0634 31.477Z" fill="#21A038"/>
</svg>
