<svg width="11" height="10" viewBox="0 0 11 10" fill="none" xmlns="http://www.w3.org/2000/svg">
<path d="M8.95601 4.35807C8.96721 3.00043 7.8179 1.75592 6.39421 1.58364C6.36345 1.57978 6.33279 1.57508 6.30228 1.56955C6.23072 1.55577 6.15815 1.54792 6.0853 1.54608C5.79319 1.54608 5.71526 1.75264 5.69473 1.87516C5.67467 1.99487 5.6938 2.0958 5.75119 2.1742C5.84779 2.30612 6.01811 2.32959 6.15483 2.34837C6.19449 2.354 6.23229 2.35916 6.26402 2.36621C7.54352 2.65398 7.97422 3.10605 8.18467 4.38248C8.18981 4.41347 8.19214 4.45196 8.19494 4.4928C8.20427 4.64537 8.22294 4.96272 8.56218 4.96272C8.59018 4.96272 8.62097 4.96037 8.6527 4.95568C8.96815 4.90732 8.95835 4.61721 8.95368 4.47778C8.95228 4.43835 8.95088 4.40126 8.95461 4.37638C8.95536 4.37015 8.95567 4.36387 8.95555 4.3576L8.95601 4.35807Z" fill="#21A038"/>
<path d="M6.00243 1.08535C6.0407 1.08817 6.07616 1.09099 6.10602 1.09521C8.20726 1.42054 9.17366 2.42187 9.44104 4.55222C9.4457 4.58837 9.44664 4.6325 9.4471 4.67897C9.4499 4.84563 9.4555 5.19208 9.82507 5.19912H9.83627C9.95247 5.19912 10.0444 5.16391 10.1107 5.09443C10.2254 4.97378 10.218 4.79399 10.211 4.6494C10.2096 4.61372 10.2082 4.58039 10.2082 4.55081C10.2352 2.37258 8.36032 0.396674 6.19702 0.32344C6.18769 0.32344 6.17929 0.32344 6.17089 0.324848C6.16238 0.325929 6.1538 0.326399 6.14522 0.326257C6.12329 0.326257 6.09716 0.324379 6.06869 0.322501C6.0351 0.320154 5.99637 0.317337 5.9567 0.317337C5.61233 0.317337 5.547 0.563797 5.5386 0.710734C5.51947 1.05014 5.84564 1.07409 6.00243 1.08535V1.08535ZM9.33978 7.30553C9.2947 7.27105 9.25005 7.23599 9.20586 7.20037C8.97627 7.01447 8.73222 6.84359 8.49658 6.67788L8.34959 6.5746C8.04721 6.361 7.77563 6.25725 7.51898 6.25725C7.17274 6.25725 6.8713 6.44973 6.62212 6.82857C6.51199 6.99663 6.37807 7.07832 6.21335 7.07832C6.09894 7.07429 5.98667 7.04598 5.88391 6.99522C4.90865 6.55019 4.2115 5.86761 3.813 4.96674C3.62028 4.5311 3.68281 4.24661 4.02158 4.0147C4.2143 3.88326 4.57221 3.63868 4.54748 3.1697C4.51855 2.63781 3.3515 1.03653 2.85967 0.854854C2.64942 0.777696 2.41895 0.777032 2.20826 0.852976C1.64316 1.04404 1.23813 1.38017 1.03514 1.82379C0.83916 2.25287 0.848492 2.75658 1.06034 3.28049C1.67396 4.79539 2.5363 6.11642 3.62401 7.20648C4.6884 8.27353 5.99683 9.14717 7.51245 9.80393C7.64917 9.86308 7.79243 9.89547 7.89742 9.91894C7.93289 9.92692 7.96368 9.93396 7.98608 9.94007C7.99841 9.94341 8.01111 9.94514 8.02388 9.94523H8.03601C8.74902 9.94523 9.60529 9.28988 9.868 8.54299C10.0985 7.88858 9.67762 7.56513 9.33978 7.30553V7.30553ZM6.31788 2.8162C6.19608 2.81902 5.94177 2.82559 5.85264 3.08567C5.81065 3.20772 5.81578 3.31288 5.86758 3.39973C5.94317 3.52648 6.08829 3.56591 6.21988 3.58751C6.69818 3.6645 6.94409 3.9302 6.99309 4.42453C7.01596 4.65456 7.17041 4.81558 7.3678 4.81558C7.38277 4.81556 7.39773 4.81462 7.41259 4.81276C7.65057 4.7846 7.76583 4.60855 7.75557 4.2898C7.7593 3.95743 7.58665 3.58 7.2922 3.27955C6.99729 2.97816 6.64172 2.80822 6.31788 2.8162V2.8162Z" fill="#21A038"/>
</svg>
