<svg width="12" height="11" viewBox="0 0 12 11" fill="none" xmlns="http://www.w3.org/2000/svg">
<path fill-rule="evenodd" clip-rule="evenodd" d="M9.44837 1.60868C8.95202 1.10852 8.36152 0.711955 7.71106 0.441955C7.06061 0.171954 6.36312 0.0338834 5.65901 0.0357393C2.7074 0.0357393 0.302636 2.44183 0.302636 5.39782C0.300399 6.33906 0.546903 7.26413 1.01712 8.07909L0.257812 10.8582L3.09781 10.1113C3.88311 10.5397 4.76296 10.7645 5.65722 10.7653H5.65946C8.61152 10.7653 11.0136 8.35965 11.0154 5.40142C11.0154 3.96898 10.4587 2.62229 9.44837 1.60823V1.60868ZM5.65901 9.85897H5.65722C4.86006 9.85897 4.07754 9.64456 3.3914 9.23815L3.2287 9.14163L1.54245 9.5838L1.99247 7.93859L1.88759 7.77025C1.44141 7.05971 1.2052 6.23719 1.20627 5.39782C1.20627 2.94146 3.20404 0.942513 5.6608 0.942513C6.24549 0.94105 6.82465 1.05575 7.36477 1.27998C7.90488 1.50421 8.39522 1.8335 8.80739 2.24881C9.2216 2.66212 9.54993 3.15352 9.77342 3.69463C9.99692 4.23574 10.1111 4.81584 10.1095 5.40142C10.1095 7.86003 8.11174 9.85897 5.65856 9.85897H5.65901ZM8.09964 6.52007C7.96651 6.45363 7.30806 6.12953 7.18569 6.08554C7.06332 6.03975 6.97368 6.01865 6.88448 6.15197C6.79483 6.28664 6.53934 6.58875 6.4609 6.67808C6.3838 6.76562 6.30491 6.77819 6.17179 6.7113C6.03732 6.64486 5.60657 6.50256 5.09514 6.04514C4.69755 5.69051 4.42817 5.25059 4.35107 5.11726C4.27218 4.98259 4.3421 4.91077 4.40889 4.84344C4.46985 4.78418 4.54336 4.68767 4.61015 4.60866C4.67649 4.5319 4.69979 4.47579 4.74462 4.38601C4.78854 4.29668 4.76613 4.21767 4.73252 4.15124C4.69935 4.0848 4.43175 3.42357 4.31969 3.15513C4.21077 2.89387 4.10051 2.93068 4.01848 2.92574C3.94139 2.92215 3.85219 2.92215 3.76299 2.92215C3.67334 2.92215 3.52812 2.95537 3.4053 3.09049C3.28293 3.22381 2.93779 3.54837 2.93779 4.20735C2.93779 4.86678 3.4174 5.50466 3.48464 5.59444C3.55098 5.68198 4.42817 7.0354 5.77062 7.61628C6.01938 7.72402 6.27374 7.81828 6.53262 7.89864C6.8531 8.00009 7.14535 7.98617 7.37664 7.9525C7.63392 7.91435 8.16777 7.6284 8.27983 7.31462C8.39054 7.00264 8.39054 6.73419 8.35692 6.67808C8.32375 6.62197 8.23455 6.5883 8.09964 6.52007Z" fill="white"/>
</svg>
