<svg width="13" height="12" viewBox="0 0 13 12" fill="none" xmlns="http://www.w3.org/2000/svg">
<path d="M9.95601 5.35807C9.96721 4.00043 8.8179 2.75592 7.39421 2.58364C7.36345 2.57978 7.33279 2.57508 7.30228 2.56955C7.23072 2.55577 7.15815 2.54792 7.0853 2.54608C6.79319 2.54608 6.71526 2.75264 6.69473 2.87516C6.67467 2.99487 6.6938 3.0958 6.75119 3.1742C6.84779 3.30612 7.01811 3.32959 7.15483 3.34837C7.19449 3.354 7.23229 3.35916 7.26402 3.36621C8.54352 3.65398 8.97422 4.10605 9.18467 5.38248C9.18981 5.41347 9.19214 5.45196 9.19494 5.4928C9.20427 5.64537 9.22294 5.96272 9.56218 5.96272C9.59018 5.96272 9.62097 5.96037 9.6527 5.95568C9.96815 5.90732 9.95835 5.61721 9.95368 5.47778C9.95228 5.43835 9.95088 5.40126 9.95461 5.37638C9.95536 5.37015 9.95567 5.36387 9.95555 5.3576L9.95601 5.35807Z" fill="white"/>
<path d="M7.00243 2.08535C7.0407 2.08817 7.07616 2.09099 7.10602 2.09521C9.20726 2.42054 10.1737 3.42187 10.441 5.55222C10.4457 5.58837 10.4466 5.6325 10.4471 5.67897C10.4499 5.84562 10.4555 6.19208 10.8251 6.19912H10.8363C10.9525 6.19912 11.0444 6.16391 11.1107 6.09443C11.2254 5.97378 11.218 5.79399 11.211 5.6494C11.2096 5.61372 11.2082 5.58039 11.2082 5.55081C11.2352 3.37258 9.36032 1.39667 7.19702 1.32344C7.18769 1.32344 7.17929 1.32344 7.17089 1.32485C7.16238 1.32593 7.1538 1.3264 7.14522 1.32626C7.12329 1.32626 7.09716 1.32438 7.06869 1.3225C7.0351 1.32015 6.99637 1.31734 6.9567 1.31734C6.61233 1.31734 6.547 1.5638 6.5386 1.71073C6.51947 2.05014 6.84564 2.07409 7.00243 2.08535ZM10.3398 8.30553C10.2947 8.27105 10.2501 8.23599 10.2059 8.20037C9.97627 8.01447 9.73222 7.84359 9.49658 7.67788L9.34959 7.5746C9.04721 7.361 8.77563 7.25725 8.51898 7.25725C8.17274 7.25725 7.8713 7.44973 7.62212 7.82857C7.51199 7.99663 7.37807 8.07832 7.21335 8.07832C7.09894 8.07429 6.98667 8.04598 6.88391 7.99522C5.90865 7.55019 5.2115 6.86761 4.813 5.96674C4.62028 5.5311 4.68281 5.24661 5.02158 5.0147C5.2143 4.88326 5.57221 4.63868 5.54748 4.1697C5.51855 3.63781 4.3515 2.03653 3.85967 1.85485C3.64942 1.7777 3.41895 1.77703 3.20826 1.85298C2.64316 2.04404 2.23813 2.38017 2.03514 2.82379C1.83916 3.25287 1.84849 3.75658 2.06034 4.28049C2.67396 5.79539 3.5363 7.11642 4.62401 8.20648C5.6884 9.27353 6.99683 10.1472 8.51245 10.8039C8.64917 10.8631 8.79243 10.8955 8.89742 10.9189C8.93289 10.9269 8.96368 10.934 8.98608 10.9401C8.99841 10.9434 9.01111 10.9451 9.02388 10.9452H9.03601C9.74902 10.9452 10.6053 10.2899 10.868 9.54299C11.0985 8.88858 10.6776 8.56513 10.3398 8.30553ZM7.31787 3.8162C7.19608 3.81902 6.94177 3.82559 6.85264 4.08567C6.81065 4.20772 6.81578 4.31288 6.86758 4.39973C6.94317 4.52648 7.08829 4.56591 7.21988 4.58751C7.69818 4.6645 7.94409 4.9302 7.99309 5.42453C8.01596 5.65456 8.17041 5.81558 8.36779 5.81558C8.38277 5.81556 8.39773 5.81462 8.41259 5.81276C8.65057 5.7846 8.76583 5.60855 8.75557 5.2898C8.7593 4.95743 8.58665 4.58 8.2922 4.27955C7.99729 3.97816 7.64172 3.80822 7.31787 3.8162Z" fill="white"/>
</svg>
