<svg width="30" height="22" viewBox="0 0 30 22" fill="none" xmlns="http://www.w3.org/2000/svg">
<mask id="mask0_794_356" style="mask-type:luminance" maskUnits="userSpaceOnUse" x="0" y="0" width="30" height="22">
<path d="M30 0H0V22H30V0Z" fill="white"/>
</mask>
<g mask="url(#mask0_794_356)">
<path d="M25.0125 15.1311C23.475 15.1311 21.9875 14.8867 20.6 14.4467C20.1625 14.3 19.675 14.41 19.3375 14.74L17.375 17.1478C13.8375 15.4978 10.525 12.3811 8.7625 8.8L11.2 6.77111C11.5375 6.42889 11.6375 5.95222 11.5 5.52445C11.0375 4.16778 10.8 2.71333 10.8 1.21C10.8 0.55 10.2375 0 9.5625 0H5.2375C4.5625 0 3.75 0.293333 3.75 1.21C3.75 12.5645 13.4125 22 25.0125 22C25.9 22 26.25 21.23 26.25 20.5578V16.3411C26.25 15.6811 25.6875 15.1311 25.0125 15.1311Z" fill="#5E5E5E"/>
</g>
</svg>
