<svg width="31" height="30" viewBox="0 0 31 30" fill="none" xmlns="http://www.w3.org/2000/svg">
<g opacity="0.2" filter="url(#filter0_d_794_366)">
<path d="M25.2625 15.1311C23.725 15.1311 22.2375 14.8867 20.85 14.4467C20.4125 14.3 19.925 14.41 19.5875 14.74L17.625 17.1478C14.0875 15.4978 10.775 12.3811 9.0125 8.8L11.45 6.77111C11.7875 6.42889 11.8875 5.95222 11.75 5.52445C11.2875 4.16778 11.05 2.71333 11.05 1.21C11.05 0.55 10.4875 0 9.8125 0H5.4875C4.8125 0 4 0.293333 4 1.21C4 12.5645 13.6625 22 25.2625 22C26.15 22 26.5 21.23 26.5 20.5578V16.3411C26.5 15.6811 25.9375 15.1311 25.2625 15.1311Z" fill="#5E5E5E"/>
</g>
<defs>
<filter id="filter0_d_794_366" x="0" y="0" width="30.5" height="30" filterUnits="userSpaceOnUse" color-interpolation-filters="sRGB">
<feFlood flood-opacity="0" result="BackgroundImageFix"/>
<feColorMatrix in="SourceAlpha" type="matrix" values="0 0 0 0 0 0 0 0 0 0 0 0 0 0 0 0 0 0 127 0" result="hardAlpha"/>
<feOffset dy="4"/>
<feGaussianBlur stdDeviation="2"/>
<feComposite in2="hardAlpha" operator="out"/>
<feColorMatrix type="matrix" values="0 0 0 0 0 0 0 0 0 0 0 0 0 0 0 0 0 0 0.25 0"/>
<feBlend mode="normal" in2="BackgroundImageFix" result="effect1_dropShadow_794_366"/>
<feBlend mode="normal" in="SourceGraphic" in2="effect1_dropShadow_794_366" result="shape"/>
</filter>
</defs>
</svg>
