<svg width="18" height="24" viewBox="0 0 18 24" fill="none" xmlns="http://www.w3.org/2000/svg">
<g opacity="0.2" clip-path="url(#clip0_789_2476)">
<mask id="mask0_789_2476" style="mask-type:luminance" maskUnits="userSpaceOnUse" x="0" y="0" width="18" height="24">
<path d="M18 0H0V24H18V0Z" fill="white"/>
</mask>
<g mask="url(#mask0_789_2476)">
<path d="M9.00073 11.7376C11.634 11.7376 13.7689 9.11006 13.7689 5.86882C13.7689 2.62752 13.068 0 9.00073 0C4.93347 0 4.23242 2.62752 4.23242 5.86882C4.23242 9.11006 6.36732 11.7376 9.00073 11.7376Z" fill="white"/>
<path d="M17.996 20.4611C17.9077 14.8148 17.1799 13.2059 11.6112 12.1875C11.6112 12.1875 10.8274 13.1997 9.0003 13.1997C7.17323 13.1997 6.38922 12.1875 6.38922 12.1875C0.881283 13.1948 0.109314 14.7798 0.00780979 20.2777C-0.000513528 20.7266 -0.00437065 20.7502 -0.00585938 20.6981C-0.00552103 20.7958 -0.00511515 20.9764 -0.00511515 21.2913C-0.00511515 21.2913 1.32066 23.9996 9.0003 23.9996C16.6798 23.9996 18.0057 21.2913 18.0057 21.2913C18.0057 21.089 18.0059 20.9483 18.0061 20.8525C18.0046 20.8848 18.0016 20.8223 17.996 20.4611Z" fill="white"/>
</g>
</g>
<defs>
<clipPath id="clip0_789_2476">
<rect width="18" height="24" fill="white"/>
</clipPath>
</defs>
</svg>
