<svg width="23" height="22" viewBox="0 0 23 22" fill="none" xmlns="http://www.w3.org/2000/svg">
<path opacity="0.2" d="M21.2625 15.1311C19.725 15.1311 18.2375 14.8867 16.85 14.4467C16.4125 14.3 15.925 14.41 15.5875 14.74L13.625 17.1478C10.0875 15.4978 6.77503 12.3811 5.0125 8.8L7.45003 6.77111C7.78753 6.42889 7.88747 5.95222 7.75003 5.52445C7.28747 4.16778 7.05 2.71333 7.05 1.21C7.05 0.55 6.4875 0 5.8125 0H1.4875C0.812503 0 0 0.293333 0 1.21C0 12.5645 9.66253 22 21.2625 22C22.15 22 22.5 21.23 22.5 20.5578V16.3411C22.5 15.6811 21.9375 15.1311 21.2625 15.1311Z" fill="#5E5E5E"/>
</svg>
