<svg width="44" height="44" viewBox="0 0 44 44" fill="none" xmlns="http://www.w3.org/2000/svg">
<path d="M43.4925 30.3445C42.5716 28.6949 40.6612 27.9129 38.8474 28.4473L27.4413 31.7941C27.0939 29.8838 25.7159 28.312 23.7964 27.7348L16.3573 25.5003C16.2113 25.4568 16.0555 25.4594 15.9101 25.5082L8.9873 27.8571V26.2022C8.9873 25.7973 8.65892 25.4696 8.25393 25.4696L0.733366 25.4699C0.32838 25.4699 0 25.7976 0 26.2025V40.4089C0 40.8138 0.32838 41.1415 0.733366 41.1415H8.25368C8.65866 41.1415 8.98705 40.8138 8.98705 40.4089V39.3009C10.0344 39.6351 12.1146 40.2409 16.3643 41.3904C16.7549 41.5 17.1582 41.2651 17.2636 40.8753C17.3694 40.4848 17.1382 40.0819 16.7473 39.9769C11.5624 38.5739 9.66575 37.996 8.98669 37.7634V29.406L16.1593 26.9721L23.3734 29.1392C24.8922 29.5951 25.9278 30.9193 26.0381 32.4784C25.4622 33.0259 23.5145 34.5054 19.8352 33.778C19.4355 33.6966 19.0518 33.9569 18.9729 34.354C18.894 34.7504 19.1523 35.1359 19.5494 35.2147C20.3493 35.3737 21.0836 35.4407 21.7541 35.4407C24.9296 35.4407 26.6742 33.9314 27.1955 33.3937L39.2604 29.8535C40.4115 29.5166 41.6255 30.0108 42.2105 31.0596C42.9514 32.3158 42.3664 34.0704 41.0191 34.6323L24.4216 42.0155C23.7462 41.8395 21.77 41.3215 19.4265 40.6961C19.0323 40.5889 18.6329 40.8234 18.5284 41.2148C18.424 41.6053 18.6567 42.0069 19.0477 42.1113C21.9566 42.8874 24.2997 43.4986 24.2997 43.4986C24.3606 43.5143 24.4228 43.5221 24.4847 43.5221C24.5869 43.5221 24.6883 43.5006 24.783 43.4584L41.616 35.9699C42.6447 35.5127 43.4386 34.6386 43.7945 33.5711C44.1507 32.5036 44.04 31.3282 43.492 30.3454L43.4925 30.3445ZM7.52072 39.6757H1.46714V26.9344H7.52072V39.6757Z" fill="#21A038"/>
<path d="M5.19779 28.3721H3.79098C3.386 28.3721 3.05762 28.6998 3.05762 29.1047C3.05762 29.5095 3.386 29.8373 3.79098 29.8373H5.19779C5.60277 29.8373 5.93115 29.5095 5.93115 29.1047C5.93115 28.6998 5.60277 28.3721 5.19779 28.3721Z" fill="#21A038"/>
<path d="M29.4281 19.4262C30.8435 19.4262 31.9949 18.276 31.9949 16.8621C31.9949 15.4482 30.8435 14.298 29.4281 14.298C28.0128 14.298 26.8613 15.4482 26.8613 16.8621C26.8613 18.276 28.0128 19.4262 29.4281 19.4262ZM29.4281 15.7632C30.0348 15.7632 30.5282 16.2561 30.5282 16.8621C30.5282 17.4681 30.0348 17.961 29.4281 17.961C28.8214 17.961 28.3281 17.4681 28.3281 16.8621C28.3281 16.2561 28.8214 15.7632 29.4281 15.7632Z" fill="#21A038"/>
<path d="M24.6604 9.53654C24.6604 8.12268 23.509 6.97247 22.0936 6.97247C20.6783 6.97247 19.5269 8.12268 19.5269 9.53654C19.5269 10.9504 20.6783 12.1006 22.0936 12.1006C23.509 12.1006 24.6604 10.9504 24.6604 9.53654ZM22.0936 10.6354C21.487 10.6354 20.9936 10.1426 20.9936 9.53654C20.9936 8.93052 21.487 8.43766 22.0936 8.43766C22.7003 8.43766 23.1937 8.93052 23.1937 9.53654C23.1937 10.1426 22.7003 10.6354 22.0936 10.6354Z" fill="#21A038"/>
<path d="M23.2438 19.5804C23.6115 19.7269 24.0466 19.5473 24.1949 19.167L28.6917 7.7687C28.8403 7.39226 28.655 6.96743 28.2785 6.81859C27.9003 6.67109 27.4757 6.85587 27.3274 7.23198L22.8306 18.6303C22.682 19.0067 22.8673 19.4315 23.2438 19.5804Z" fill="#21A038"/>
<path d="M25.7608 24.921C30.9471 24.921 35.5804 21.4503 37.0278 16.4815C37.1414 16.093 36.9175 15.6868 36.5285 15.5736C36.1422 15.4614 35.733 15.6832 35.6197 16.0723C34.3527 20.4192 30.2985 23.4555 25.7607 23.4555C20.0994 23.4555 15.4936 18.8546 15.4936 13.1992C15.4936 7.54389 20.0994 2.94297 25.7607 2.94297C31.4221 2.94297 36.0278 7.54389 36.0278 13.1992C36.0278 13.6041 36.3562 13.9318 36.7612 13.9318C37.1662 13.9318 37.4946 13.6041 37.4946 13.1992C37.4946 6.73611 32.2307 1.47778 25.7607 1.47778C19.2907 1.47778 14.0269 6.73611 14.0269 13.1992C14.0269 19.6624 19.2907 24.9207 25.7607 24.9207L25.7608 24.921Z" fill="#21A038"/>
</svg>
